<svg xmlns="http://www.w3.org/2000/svg" xmlns:xlink="http://www.w3.org/1999/xlink" viewBox="0 0 578.27 313.83"><defs><style>.cls-1{fill:none;}.cls-2{clip-path:url(#clip-path);}.cls-3{fill:#fff;}.cls-11,.cls-4{fill:#c64e60;}.cls-4,.cls-5{fill-opacity:0.74;}.cls-5{fill:#e48f92;}.cls-6{fill:#00aec7;}.cls-6,.cls-8{fill-opacity:0.82;}.cls-7{fill:#67d2df;fill-opacity:0.82;}.cls-8{fill:#006ebb;}.cls-9{fill:#00a0d7;fill-opacity:0.86;}.cls-10{isolation:isolate;}.cls-11,.cls-14{font-size:96.98px;font-family:Montserrat-Medium, Montserrat;}.cls-11,.cls-15{letter-spacing:-0.03em;}.cls-12{letter-spacing:-0.02em;}.cls-13{letter-spacing:-0.03em;}.cls-14{fill:#373737;letter-spacing:-0.03em;}.cls-16{letter-spacing:-0.02em;}.cls-17{letter-spacing:-0.04em;}.cls-18{letter-spacing:-0.02em;}</style><clipPath id="clip-path"><path class="cls-1" d="M165.42,11.06c-2.44,0-3.82.08-3.82.08L161.48,63h.05l-.22,53.88h.15L161.31,143s39.05,4.66,72,19.18,51.2,34.27,51.2,34.27,11.21-18.57,44.84-33.27S407.18,143,407.18,143V11.44s-48.08-1.57-77,10.33-44.59,31.17-44.59,31.17S270.14,35.15,238.4,22.25C212.61,11.76,176,11,165.42,11.06Z"/></clipPath></defs><title>layer11x</title><g id="Layer_2" data-name="Layer 2"><g id="svg8"><g id="layer1"><g class="cls-2"><g id="g975"><g id="g973"><g id="g971"><g id="g969"><path id="path955" class="cls-3" d="M167.89,205.19H307.08"/><path id="path957" class="cls-3" d="M190.11,204.91Q199.8,103.14,209.47,1.36H157.91V204.91Z"/><path id="path959" class="cls-3" d="M179.07,204.91,198.36,1.23h37.3q9.9,102,19.79,204-38.19-.24-76.38-.36Z"/><path id="path961" class="cls-3" d="M217,1.23l31.44,204c12.81-.4,25.62.81,38.43-.6l14.4-7.66L306.83,1.16c-29.94.26-59.88.1-89.82.08Z"/><path id="path963" class="cls-3" d="M284.87,201.76q.58-77.28,1.16-154.54C308.19,29.86,330.36,15.56,352.52,0l-14.4,205.55C320.37,205.86,302.62,203.62,284.87,201.76Z"/><path id="path965" class="cls-3" d="M339,9.62q-3,97.74-6.08,195.5h37.3q9.9-102,19.79-204c-10.55.68-21.1-1.17-31.65,1.21L339,9.62Z"/><path id="path967" class="cls-3" d="M378.81,1.08q-9.68,101.78-19.36,203.55H411V1.08Z"/></g></g></g></g></g><g class="cls-2"><g id="g7643"><g id="g7641"><g id="g7639"><g id="g7723"><path id="path7625" class="cls-1" d="M167.89,205.19H307.08"/><path id="path7627" class="cls-4" d="M190.11,204.91,209.47,1.36H157.91V204.91Z"/><path id="path7629" class="cls-5" d="M179.07,204.91,198.36,1.23h37.3l19.79,204-28.87-.16Z"/><path id="path7631" class="cls-6" d="M217,1.23l31.44,204h37.29l15.54-8.26L306.83,1.16,278,1.32Z"/><path id="path7633" class="cls-7" d="M284.87,201.76,286,47.22C310.62,28.08,330.53,15.49,352.52,0l-14.4,205.55-20.4-.4Z"/><path id="path7635" class="cls-8" d="M339,9.62l-6.08,195.5h37.3L390,1.08l-28.88.16Z"/><path id="path7637" class="cls-9" d="M378.81,1.08,359.45,204.63H411V1.08Z"/></g></g></g></g></g><g id="layer1-2"><g id="text983" class="cls-10"><g class="cls-10"><text class="cls-11" transform="translate(0 288.33)">o<tspan class="cls-12" x="59.16" y="0">n</tspan><tspan class="cls-13" x="123.06" y="0">c</tspan><tspan x="175.24" y="0">o</tspan></text></g><g class="cls-10"><text class="cls-14" transform="translate(234.26 288.33)">r<tspan class="cls-15" x="36.66" y="0">is</tspan><tspan class="cls-16" x="107.45" y="0">k</tspan><tspan class="cls-17" x="165.73" y="0">.</tspan><tspan class="cls-18" x="184.16" y="0">o</tspan><tspan class="cls-17" x="243.31" y="0">r</tspan><tspan class="cls-15" x="279.48" y="0">g</tspan></text></g></g></g></g></g></g></svg>